<svg version="1.1" id="svg8" inkscape:version="0.92.0 r15299" xmlns:cc="http://creativecommons.org/ns#" xmlns:inkscape="http://www.inkscape.org/namespaces/inkscape" xmlns:rdf="http://www.w3.org/1999/02/22-rdf-syntax-ns#" xmlns:sodipodi="http://sodipodi.sourceforge.net/DTD/sodipodi-0.dtd" xmlns:dc="http://purl.org/dc/elements/1.1/" xmlns:svg="http://www.w3.org/2000/svg" xmlns="http://www.w3.org/2000/svg" xmlns:xlink="http://www.w3.org/1999/xlink" x="0px" y="0px" viewBox="34.1 -15.8 265.2 121.8" style="enable-background:new 34.1 -15.8 265.2 121.8;" xml:space="preserve">
 <sodipodi:namedview id="base" inkscape:window-x="-4" inkscape:window-maximized="1" inkscape:document-units="mm" fit-margin-right="0" inkscape:pageshadow="2" inkscape:window-height="744" inkscape:current-layer="layer1" inkscape:window-width="1280" inkscape:pageopacity="0.0" inkscape:window-y="-4" fit-margin-bottom="0" fit-margin-top="0" showgrid="false" units="px" pagecolor="#ffffff" borderopacity="1.0" inkscape:cy="50.401344" inkscape:zoom="4.0875653" fit-margin-left="0" inkscape:cx="109.72302" bordercolor="#666666">
 </sodipodi:namedview>
 <g id="layer1" transform="translate(-45.808404,-343.61173)" inkscape:groupmode="layer" inkscape:label="Layer 1">
  <g id="g453" transform="translate(0.26458345,-0.2645772)">
   <path id="Fill-24" inkscape:connector-curvature="0" d="M87.5,449h-7.8v-1.2h2.3v-19.5h-2.1v-1.2h13.8c2.9,0,6.9,0.1,6.9,0.1l0,0
			l0.8,6.8h-1l-0.1-0.3c-1.2-4.2-2.1-5.4-6.6-5.4h-8.1v9.5h4.8c4,0,5.2-0.4,5.2-3v-0.4h1v7.8h-1v-0.4c0-1.9-1.1-2.9-5.2-2.9h-4.8
			v8.8h1.9L87.5,449">
   </path>
   <path id="Fill-26" inkscape:connector-curvature="0" d="M114.5,431.7c-5.4,0-8.5,3-8.5,8.4c0,5.3,3,8.3,8.5,8.3
			c5.5,0,8.5-2.9,8.5-8.3C123,434.8,119.9,431.7,114.5,431.7 M114.5,449.4c-7.9,0-12.2-4.8-12.2-9.3c0-5.9,6.2-9.4,12.2-9.4
			c7.9,0,12.2,4.9,12.2,9.4C126.7,446.1,120.4,449.4,114.5,449.4">
   </path>
   <path id="Fill-27" inkscape:connector-curvature="0" d="M139.4,449.4c-4.4,0-9.8-1.6-9.8-9.1v-8.2h-1.8v-1h7.2v1h-2v8.2
			c0,7,4,8.1,6.4,8.1c3.7,0,7.7-2.1,7.7-8.1v-8.2h-1.8v-1h4.4v1H148v8.2C148,447,143.4,449.4,139.4,449.4">
   </path>
   <path id="Fill-28" inkscape:connector-curvature="0" d="M156.5,440h6.5c3.1,0,4.5-1.2,4.5-3.9c0-2.7-1.4-3.9-4.5-3.9h-6.5
			L156.5,440z M163.2,441h-6.7v6.9h1.7v1h-7v-1h2.1v-15.8h-2.1v-1H163c2,0,8.2,0,8.2,5c0,2.3-1.3,3.8-3.7,4.5
			C167.5,440.6,166.2,441,163.2,441L163.2,441z">
   </path>
   <path id="Fill-29" inkscape:connector-curvature="0" d="M206.4,429.2l0.5,5.3l-1,0l-0.3-0.9c-1.4-4-4.2-5.7-8.6-5.7
			c-4.4,0-7,1.2-7,3.3c0,2.3,3.6,3.2,7.5,4.2c4.7,1.2,10.1,2.5,10.1,7c0,4.7-3.6,7.1-10.7,7.1c0,0-5.2-0.2-9.3-1.7l-1.2-6.3h0.9
			l0.4,1c1.5,3.6,5.1,5.9,9.2,5.9c3.1,0,8.2-0.6,8.2-4.3c0-2.7-3.8-3.6-7.9-4.6c-4.8-1.2-9.7-2.3-9.7-6.6c0-3.9,3.5-6.1,9.5-6.1
			c1.8,0,2.9,0.2,4.7,0.7C201.8,427.5,204.8,428.3,206.4,429.2">
   </path>
   <path id="Fill-30" inkscape:connector-curvature="0" d="M229.1,449.2L229.1,449.2c-0.1,0-3.2-0.1-4.9-0.1h-13.4v-1h2v-15.8h-2v-1
			h13c1.6,0,3.3,0,3.7-0.1l1-0.1l0.6,5l-0.8,0l-0.1-0.3c-1.1-3.3-2.7-3.5-4.4-3.5h-7.7v7h4.3c3.1,0,4.1-0.4,4.1-2.6v-0.4h0.9v6.9
			h-0.9v-0.4c0-1.7-1-2.4-4.1-2.4h-4.3v7.8h8.2c3,0,3.7-0.9,4.7-3.3l0.1-0.2h1L229.1,449.2">
   </path>
   <path id="Fill-31" inkscape:connector-curvature="0" d="M237.5,442.1h10.1l-5.1-9.1L237.5,442.1z M249,449v-1h1.9l-2.7-4.9h-11.3
			l-2.7,4.9h1.9v1h-4.5v-1h1.6l8.8-15.8h-1.6v-1h4.8l0.1,0.2l9.2,16.7h1.8v1L249,449L249,449z">
   </path>
   <path id="Fill-32" inkscape:connector-curvature="0" d="M290,430.7c-6,0-12.2,3.5-12.2,9.4c0,4.5,4.3,9.3,12.2,9.3
			c5.9,0,12.2-3.3,12.2-9.3C302.2,435.5,298,430.7,290,430.7 M290,448.4c-5.5,0-8.5-2.9-8.5-8.3c0-5.3,3.1-8.4,8.5-8.4
			c5.4,0,8.5,3,8.5,8.4C298.6,445.4,295.6,448.4,290,448.4">
   </path>
   <polyline id="Fill-33" points="303.7,431.1 303.7,432.1 305.1,432.1 305.9,432.9 305.9,448 303.8,448 303.8,449 308.8,449 
			308.8,448 306.9,448 306.9,433.7 323.8,449.7 324,449.9 324,432.1 325.6,432.1 325.6,431.1 321.1,431.1 321.1,432.1 323.1,432.1 
			323.1,444.6 308.8,431.1 308.8,431.1 303.7,431.1 		">
   </polyline>
   <path id="Fill-34" inkscape:connector-curvature="0" d="M173.3,448.4c-2.7-0.1-3-1.1-3.7-2.5l-2.5-5.4h-3.7l4.6,8.9h5.3
			L173.3,448.4">
   </path>
   <path id="Fill-35" inkscape:connector-curvature="0" d="M274.3,432.9l0.4,4.4l-0.8,0l-0.2-0.7c-1.1-3.3-3.4-4.7-7-4.7
			c-3.6,0-5.7,1-5.7,2.7c0,1.9,3,2.6,6.1,3.4c3.9,1,8.3,2.1,8.3,5.8c0,3.8-2.9,5.8-8.8,5.8c0,0-4.3-0.2-7.6-1.4l-1-5.2h0.7l0.3,0.8
			c1.2,2.9,4.2,4.9,7.5,4.9c2.5,0,6.7-0.5,6.7-3.5c0-2.2-3.1-2.9-6.5-3.7c-3.9-0.9-7.9-1.9-7.9-5.4c0-3.2,2.8-5,7.8-5
			c1.5,0,2.4,0.2,3.8,0.6C270.5,431.5,272.9,432.2,274.3,432.9">
   </path>
   <path id="Fill-36" inkscape:connector-curvature="0" d="M343.9,432.9l0.4,4.4l-0.8,0l-0.2-0.7c-1.1-3.3-3.4-4.7-7-4.7
			c-3.6,0-5.7,1-5.7,2.7c0,1.9,3,2.6,6.1,3.4c3.9,1,8.3,2.1,8.3,5.8c0,3.8-3,5.8-8.8,5.8c0,0-4.3-0.2-7.6-1.4l-1-5.2h0.7l0.3,0.8
			c1.2,2.9,4.2,4.9,7.5,4.9c2.5,0,6.7-0.5,6.7-3.5c0-2.2-3.1-2.9-6.5-3.7c-3.9-0.9-7.9-1.9-7.9-5.4c0-3.2,2.8-5,7.8-5
			c1.5,0,2.4,0.2,3.8,0.6C340,431.5,342.5,432.2,343.9,432.9">
   </path>
   <path id="Fill-37" inkscape:connector-curvature="0" d="M240.7,379.2c-1.5,0.6-2.5,1.7-2.1,3.7
			C240.4,382.2,240.9,380.8,240.7,379.2">
   </path>
   <path id="Fill-38" inkscape:connector-curvature="0" d="M234.6,380.3c0.3,1.6,1.2,2.8,3.1,2.8
			C237.5,381.2,236.2,380.4,234.6,380.3">
   </path>
   <path id="Fill-39" inkscape:connector-curvature="0" d="M237.7,388.1c-0.1-1.9-1.4-2.7-3.1-2.8
			C234.8,386.9,235.6,388.1,237.7,388.1">
   </path>
   <path id="Fill-40" inkscape:connector-curvature="0" d="M232.1,362.6c-1.6,0.1-2.9,0.9-3.1,2.8
			C230.9,365.4,231.8,364.2,232.1,362.6">
   </path>
   <path id="Fill-41" inkscape:connector-curvature="0" d="M224.6,361.1c0.3,1.6,1.2,2.8,3.1,2.8
			C227.5,362.1,226.3,361.3,224.6,361.1">
   </path>
   <path id="Fill-42" inkscape:connector-curvature="0" d="M224.2,355.2c1.9,0,2.8-1.2,3.1-2.8C225.7,352.5,224.4,353.3,224.2,355.2">
   </path>
   <path id="Fill-43" inkscape:connector-curvature="0" d="M225.7,348.1c-1.5,0.7-2.5,1.8-2.1,3.7
			C225.5,351.1,225.9,349.7,225.7,348.1">
   </path>
   <path id="Fill-44" inkscape:connector-curvature="0" d="M220.3,349.4c0.1,1.6,0.8,2.9,2.7,3.2C223,350.8,221.9,349.8,220.3,349.4">
   </path>
   <path id="Fill-45" inkscape:connector-curvature="0" d="M219.5,344.8c1.9,0,2.8-1.2,3.1-2.8C221,342.1,219.8,342.9,219.5,344.8">
   </path>
   <path id="Fill-46" inkscape:connector-curvature="0" d="M221.2,338.1c-1.4,0.8-2.3,2-1.7,3.9C221.2,341.1,221.6,339.7,221.2,338.1
			">
   </path>
   <path id="Fill-47" inkscape:connector-curvature="0" d="M219,343.3c0.1-1.9-1.1-2.9-2.7-3.2C216.4,341.7,217.1,343,219,343.3">
   </path>
   <path id="Fill-48" inkscape:connector-curvature="0" d="M217.9,346.1c-0.2-1.9-1.5-2.7-3.1-2.8C215.1,344.9,216,346.1,217.9,346.1
			">
   </path>
   <path id="Fill-49" inkscape:connector-curvature="0" d="M212.8,349.9c0.6-0.4,6.5-3.8,6.5-3.8c0,0,0,0,0-0.1l-0.3-2.1H219
			c0,0,0.1,0.9,0.1,1.2c0,0.4-0.1,0.5-0.4,0.7l-6.6,3.4c0,0.5,0,1,0,1.6C212.2,350.5,212.4,350.2,212.8,349.9">
   </path>
   <path id="Fill-50" inkscape:connector-curvature="0" d="M211.3,331c-0.2-1.9-1.5-2.7-3.1-2.8C208.5,329.8,209.4,331,211.3,331">
   </path>
   <path id="Fill-51" inkscape:connector-curvature="0" d="M211.3,334.2c-0.2-1.9-1.5-2.7-3.1-2.8
			C208.5,332.9,209.4,334.1,211.3,334.2">
   </path>
   <path id="Fill-52" inkscape:connector-curvature="0" d="M211.2,337.3c-0.2-1.9-1.5-2.7-3.1-2.8
			C208.4,336.1,209.3,337.2,211.2,337.3">
   </path>
   <path id="Fill-53" inkscape:connector-curvature="0" d="M211.2,340.4c-0.2-1.9-1.5-2.7-3.1-2.8
			C208.4,339.2,209.3,340.4,211.2,340.4">
   </path>
   <path id="Fill-54" inkscape:connector-curvature="0" d="M211.1,343.5c-0.2-1.9-1.5-2.7-3.1-2.8
			C208.3,342.3,209.2,343.5,211.1,343.5">
   </path>
   <path id="Fill-55" inkscape:connector-curvature="0" d="M211.1,346.7c-0.2-1.9-1.5-2.7-3.1-2.8
			C208.3,345.5,209.2,346.6,211.1,346.7">
   </path>
   <path id="Fill-56" inkscape:connector-curvature="0" d="M206.9,339.5c-1.6,0.5-2.6,1.5-2.4,3.5C206.4,342.5,207,341.2,206.9,339.5
			">
   </path>
   <path id="Fill-57" inkscape:connector-curvature="0" d="M204.6,345.3c1.9,0,2.8-1.2,3.1-2.8C206.1,342.6,204.8,343.4,204.6,345.3">
   </path>
   <path id="Fill-58" inkscape:connector-curvature="0" d="M203.8,343.4c0.3-1.9-0.8-3-2.3-3.5C201.4,341.5,202,342.8,203.8,343.4">
   </path>
   <path id="Fill-59" inkscape:connector-curvature="0" d="M203.4,345.5c-0.2-1.9-1.5-2.7-3.1-2.8
			C200.6,344.3,201.5,345.5,203.4,345.5">
   </path>
   <path id="Fill-60" inkscape:connector-curvature="0" d="M208,354.3c-1.6,0.1-2.9,0.9-3.1,2.8C206.8,357.1,207.7,355.9,208,354.3">
   </path>
   <path id="Fill-61" inkscape:connector-curvature="0" d="M202.6,356c1.9,0,2.8-1.2,3.1-2.8C204.1,353.3,202.8,354.1,202.6,356">
   </path>
   <path id="Fill-62" inkscape:connector-curvature="0" d="M210.3,355.5c-1.6,0.1-2.9,0.9-3.1,2.8C209.1,358.3,210,357.1,210.3,355.5
			">
   </path>
   <path id="Fill-63" inkscape:connector-curvature="0" d="M206.2,352.3c1.9,0,2.8-1.2,3.1-2.8C207.7,349.6,206.4,350.4,206.2,352.3">
   </path>
   <path id="Fill-64" inkscape:connector-curvature="0" d="M204,351c1.9,0,2.8-1.2,3.1-2.8C205.5,348.3,204.2,349.1,204,351">
   </path>
   <path id="Fill-65" inkscape:connector-curvature="0" d="M201.8,349.7c1.9,0,2.8-1.2,3.1-2.8C203.3,347,202,347.8,201.8,349.7">
   </path>
   <path id="Fill-66" inkscape:connector-curvature="0" d="M203.4,351.9c-1.6,0.1-2.9,0.9-3.1,2.8
			C202.3,354.7,203.1,353.5,203.4,351.9">
   </path>
   <path id="Fill-67" inkscape:connector-curvature="0" d="M199.7,351.7c0.2-1.9-0.8-3-2.4-3.5C197.3,349.9,197.9,351.2,199.7,351.7">
   </path>
   <path id="Fill-68" inkscape:connector-curvature="0" d="M199.2,354.6c-0.2-1.9-1.5-2.7-3.1-2.8
			C196.3,353.4,197.2,354.6,199.2,354.6">
   </path>
   <path id="Fill-69" inkscape:connector-curvature="0" d="M200.8,364.4c-1.6,0.1-2.9,0.9-3.1,2.8
			C199.6,367.2,200.5,366.1,200.8,364.4">
   </path>
   <path id="Fill-70" inkscape:connector-curvature="0" d="M195.5,366c1.9,0,2.8-1.2,3.1-2.8C196.9,363.3,195.7,364.1,195.5,366">
   </path>
   <path id="Fill-71" inkscape:connector-curvature="0" d="M203.1,365.6c-1.6,0.1-2.9,0.9-3.1,2.8
			C201.9,368.4,202.8,367.3,203.1,365.6">
   </path>
   <path id="Fill-72" inkscape:connector-curvature="0" d="M205.4,366.8c-1.6,0.1-2.9,0.9-3.1,2.8
			C204.2,369.6,205.1,368.4,205.4,366.8">
   </path>
   <path id="Fill-73" inkscape:connector-curvature="0" d="M207.7,368c-1.6,0.1-2.9,0.9-3.1,2.8C206.5,370.8,207.4,369.6,207.7,368">
   </path>
   <path id="Fill-74" inkscape:connector-curvature="0" d="M209.9,369.2c-1.6,0.1-2.9,0.9-3.1,2.8C208.8,372,209.7,370.8,209.9,369.2
			">
   </path>
   <path id="Fill-75" inkscape:connector-curvature="0" d="M206.7,364.5c1.9,0,2.8-1.2,3.1-2.8C208.1,361.8,206.9,362.6,206.7,364.5">
   </path>
   <path id="Fill-76" inkscape:connector-curvature="0" d="M204.5,363.2c1.9,0,2.8-1.2,3.1-2.8C205.9,360.5,204.7,361.3,204.5,363.2">
   </path>
   <path id="Fill-77" inkscape:connector-curvature="0" d="M202.3,361.9c1.9,0,2.8-1.2,3.1-2.8C203.7,359.2,202.5,360,202.3,361.9">
   </path>
   <path id="Fill-78" inkscape:connector-curvature="0" d="M200.1,360.6c1.9,0,2.8-1.2,3.1-2.8C201.5,357.9,200.3,358.7,200.1,360.6">
   </path>
   <path id="Fill-79" inkscape:connector-curvature="0" d="M197.9,359.3c1.9,0,2.8-1.2,3.1-2.8C199.3,356.6,198.1,357.4,197.9,359.3">
   </path>
   <path id="Fill-80" inkscape:connector-curvature="0" d="M198.5,360.3c-1.6,0.1-2.9,0.9-3.1,2.8
			C197.3,363.1,198.2,361.9,198.5,360.3">
   </path>
   <path id="Fill-81" inkscape:connector-curvature="0" d="M195,361.5c0.5-1.9-0.4-3-1.9-3.8C192.8,359.4,193.2,360.8,195,361.5">
   </path>
   <path id="Fill-82" inkscape:connector-curvature="0" d="M194.5,364c-0.2-1.9-1.5-2.7-3.1-2.8C191.7,362.8,192.6,364,194.5,364">
   </path>
   <path id="Fill-83" inkscape:connector-curvature="0" d="M194.1,366.9c-0.2-1.9-1.5-2.7-3.1-2.8
			C191.2,365.6,192.1,366.8,194.1,366.9">
   </path>
   <path id="Fill-84" inkscape:connector-curvature="0" d="M199.4,374.8c1.9,0,2.8-1.2,3.1-2.8C200.9,372.1,199.7,372.9,199.4,374.8">
   </path>
   <path id="Fill-85" inkscape:connector-curvature="0" d="M199.4,379.2c1.9,0,2.8-1.2,3.1-2.8C200.9,376.5,199.7,377.3,199.4,379.2">
   </path>
   <path id="Fill-86" inkscape:connector-curvature="0" d="M197.3,373.5c1.9,0,2.8-1.2,3.1-2.8C198.7,370.8,197.5,371.6,197.3,373.5">
   </path>
   <path id="Fill-87" inkscape:connector-curvature="0" d="M195.1,372.2c1.9,0,2.8-1.2,3.1-2.8C196.6,369.5,195.3,370.3,195.1,372.2">
   </path>
   <path id="Fill-88" inkscape:connector-curvature="0" d="M192.9,370.9c1.9,0,2.8-1.2,3.1-2.8C194.4,368.2,193.1,369,192.9,370.9">
   </path>
   <path id="Fill-89" inkscape:connector-curvature="0" d="M238.1,383.1c0,0,0.3,3.2,0.2,4.5c-0.1,1.5-0.3,2-1.4,2.7L213,402.5v0
			c0-2.3-0.1-5-0.1-8l0-0.8c0-1.6,0.4-2.5,2.3-3.7c1.6-1,19.3-11.4,19.3-11.4c0,0,0.1-0.1,0.1-0.2l-0.8-6.3h-0.3
			c0,0,0.2,2.6,0.2,3.7c-0.1,1.2-0.2,1.6-1.2,2.2l-19.8,10.2c-0.1-3-0.1-6.2-0.2-9.5l0-0.9c0-1,0.4-1.6,1.7-2.4
			c1.2-0.8,14.4-8.5,14.4-8.5c0,0,0.1-0.1,0.1-0.2l-0.6-4.7h-0.2c0,0,0.2,2,0.1,2.8c-0.1,0.9-0.2,1.2-0.9,1.7l-14.7,7.6
			c-0.1-3.7-0.1-7.4-0.2-11v0c0.1-0.5,0.4-1.2,1.2-1.7c0.9-0.6,10.3-6.1,10.3-6.1c0,0,0.1,0,0.1-0.1l-0.4-3.3h-0.1
			c0,0,0.1,1.4,0.1,2c0,0.6-0.1,0.9-0.6,1.2l-10.5,5.4v0c-0.1-3.4-0.1-6.7-0.2-9.8c0-0.5,0-1,0-1.6c-0.2-12.1-0.4-21.1-0.4-21.1
			c0-0.1,0-0.1-0.1-0.1c-0.1,0-0.1,0-0.1,0.1c0,0-0.2,9-0.4,21.1c0,0.2,0,0.5,0,0.7c0-0.2,0-0.5,0-0.7l-6.6-3.4
			c-0.3-0.2-0.4-0.3-0.4-0.7c0-0.4,0.1-1.2,0.1-1.2h-0.1l-0.3,2.1c0,0,0,0.1,0,0.1c0,0,6,3.5,6.5,3.8c0.4,0.2,0.6,0.5,0.7,0.8v0l0,0
			c-0.1,3.1-0.1,6.4-0.2,9.8l-10.5-5.4c-0.5-0.3-0.6-0.5-0.6-1.2c0-0.6,0.1-2,0.1-2h-0.1l-0.4,3.3c0,0.1,0,0.1,0.1,0.1
			c0,0,9.4,5.5,10.3,6.1c0.7,0.5,1.1,1.1,1.2,1.6v0c-0.1,3.7-0.1,7.4-0.2,11.1l-14.7-7.6c-0.7-0.4-0.8-0.8-0.9-1.7
			c-0.1-0.8,0.1-2.8,0.1-2.8H195l-0.6,4.7c0,0.1,0,0.1,0.1,0.2c0,0,13.2,7.7,14.4,8.5c1.3,0.8,1.7,1.5,1.7,2.5l0,0.9v0
			c-0.1,3.2-0.1,6.3-0.2,9.3l-19.8-10.2c-0.9-0.6-1.1-1-1.2-2.2c-0.1-1.1,0.2-3.7,0.2-3.7h-0.3l-0.8,6.3c0,0.1,0.1,0.2,0.1,0.2
			c0,0,17.7,10.3,19.3,11.4c1.9,1.2,2.3,2.1,2.3,3.7v0c-0.1,3.2-0.1,6.2-0.2,8.7l-23.9-12.3c-1.1-0.7-1.3-1.2-1.4-2.7
			c-0.1-1.3,0.2-4.5,0.2-4.5h-0.3l-1,7.6c0,0.2,0.1,0.2,0.1,0.3c0,0,21.4,12.5,23.4,13.8c2.3,1.5,2.8,1.6,2.8,4.3c0,0.1,0,3.2,0,3.4
			c0,2.4-1.9,2.4-1.9,2.4l0,0.5h6.9l0-0.5c0,0-1.9-0.1-1.9-2.4c0-0.1,0-3.1,0-3.4c0-2.7,0.5-2.8,2.8-4.3c2-1.3,23.4-13.8,23.4-13.8
			c0,0,0.1-0.1,0.1-0.3l-1-7.6L238.1,383.1">
   </path>
   <path id="Fill-90" inkscape:connector-curvature="0" d="M204,377.5c1.9,0,2.8-1.2,3.1-2.8C205.4,374.8,204.2,375.5,204,377.5">
   </path>
   <path id="Fill-91" inkscape:connector-curvature="0" d="M209.3,376c-1.6,0.1-2.9,0.9-3.1,2.8C208.1,378.9,209,377.7,209.3,376">
   </path>
   <path id="Fill-92" inkscape:connector-curvature="0" d="M220.9,369.6c1.5-1.2,1.5-2.7,0.7-4.2C220.4,366.6,219.9,368,220.9,369.6">
   </path>
   <path id="Fill-93" inkscape:connector-curvature="0" d="M217.8,367.5c-1.2,1.1-1.7,2.5-0.7,4.2C218.5,370.5,218.5,369,217.8,367.5
			">
   </path>
   <path id="Fill-94" inkscape:connector-curvature="0" d="M213.7,361.8c0.3,1.6,1.2,2.8,3.1,2.8
			C216.6,362.7,215.3,361.9,213.7,361.8">
   </path>
   <path id="Fill-95" inkscape:connector-curvature="0" d="M224.8,374.5c-0.2-1.9-1.5-2.7-3.1-2.8
			C221.9,373.3,222.8,374.5,224.8,374.5">
   </path>
   <path id="Fill-96" inkscape:connector-curvature="0" d="M220.9,376.6c-0.2-1.9-1.5-2.7-3.1-2.8C218,375.4,218.9,376.6,220.9,376.6
			">
   </path>
   <path id="Fill-97" inkscape:connector-curvature="0" d="M231.8,392.3c-0.2-1.9-1.5-2.7-3.1-2.9C229,391.1,229.9,392.2,231.8,392.3
			">
   </path>
   <path id="Fill-98" inkscape:connector-curvature="0" d="M227.3,394.3c-0.2-1.9-1.5-2.7-3.1-2.8
			C224.5,393.1,225.4,394.3,227.3,394.3">
   </path>
   <path id="Fill-99" inkscape:connector-curvature="0" d="M222.1,386.7c0.3,1.6,1.2,2.8,3.1,2.8C225,387.6,223.8,386.8,222.1,386.7">
   </path>
   <path id="Fill-100" inkscape:connector-curvature="0" d="M219.2,398.5c-0.2-1.9-1.5-2.7-3.1-2.9
			C216.4,397.3,217.2,398.5,219.2,398.5">
   </path>
   <path id="Fill-101" inkscape:connector-curvature="0" d="M236.4,393.7c-0.3,1.9,0.8,2.9,2.5,3.4
			C239,395.4,238.4,394.1,236.4,393.7">
   </path>
   <path id="Fill-102" inkscape:connector-curvature="0" d="M232.1,396.8c0.1,1.9,1.4,2.7,3.1,2.9C235.1,398,234.2,396.8,232.1,396.8
			">
   </path>
   <path id="Fill-103" inkscape:connector-curvature="0" d="M225.6,403.1c1.8-0.7,2.2-2.2,1.9-3.8C226,400,225.1,401.2,225.6,403.1">
   </path>
   <path id="Fill-104" inkscape:connector-curvature="0" d="M233.3,373.8c-0.2-1.9-1.5-2.7-3.1-2.8
			C230.4,372.6,231.3,373.8,233.3,373.8">
   </path>
   <path id="Fill-105" inkscape:connector-curvature="0" d="M233.1,376.7c-0.2-1.9-1.5-2.7-3.1-2.8
			C230.3,375.4,231.2,376.6,233.1,376.7">
   </path>
   <path id="Fill-106" inkscape:connector-curvature="0" d="M234.8,378.6c1.9,0,2.8-1.2,3.1-2.8C236.3,375.9,235,376.6,234.8,378.6">
   </path>
   <path id="Fill-107" inkscape:connector-curvature="0" d="M237.5,371c-1.6,0.1-2.9,0.9-3.1,2.8C236.3,373.8,237.2,372.6,237.5,371">
   </path>
  </g>
 </g>
</svg>